<svg width="200" height="298" viewBox="0 0 200 298" fill="none" xmlns="http://www.w3.org/2000/svg">
<g clip-path="url(#clip0_270_966)">
<path d="M112.55 98.5698C123.918 96.6115 131.377 96.5948 131.727 97.8538C132.458 100.486 115.391 110.642 92.6066 116.971C69.8218 123.3 49.9616 123.401 49.2305 120.769C48.8961 119.565 54.9498 115.629 65.0555 111.762" stroke="#003963" stroke-width="1.5" stroke-miterlimit="10"/>
<path d="M131.738 97.8506L135.126 110.047C135.856 112.675 118.697 122.501 95.9126 128.83C73.1278 135.159 53.3594 135.59 52.6294 132.962L49.2417 120.765" stroke="#003963" stroke-width="1.5" stroke-miterlimit="10"/>
<path d="M183.878 225.675C184.504 226.238 184.962 226.963 185.2 227.77C187.468 235.934 163.269 249.784 131.166 258.701C99.0626 267.618 71.1398 268.246 68.8722 260.082C68.6536 259.248 68.6795 258.368 68.9469 257.548" stroke="#003963" stroke-width="1.5" stroke-miterlimit="10"/>
<path d="M184.358 232.035C185.912 232.874 186.92 233.959 187.278 235.25C189.546 243.413 165.346 257.263 133.243 266.18C101.14 275.097 73.2185 275.729 70.9509 267.566C70.5924 266.275 70.8988 264.834 71.7944 263.305" stroke="#003963" stroke-width="1.5" stroke-miterlimit="10"/>
<path d="M66.2068 135.56C66.2068 135.56 85.7011 174.787 71.1774 216.326L71.4582 215.494C71.4528 215.513 71.445 215.53 71.4349 215.547C71.3339 215.788 71.2502 216.037 71.1844 216.29L71.1724 216.323C71.0295 216.895 71.0327 217.493 71.1815 218.063C72.9442 224.409 94.6039 223.931 119.549 217.002C144.495 210.073 163.308 199.317 161.543 192.963C161.375 192.384 161.057 191.86 160.621 191.444C160.436 191.257 160.235 191.087 160.02 190.937C160.02 190.937 160.012 190.909 159.981 190.905L160.624 191.439C126.755 163.345 122.851 119.826 122.851 119.826" stroke="#003963" stroke-width="1.5" stroke-miterlimit="10"/>
<path d="M161.09 191.987L183.886 225.69" stroke="#003963" stroke-width="1.5" stroke-miterlimit="10"/>
<path d="M71.078 216.989L68.947 257.549" stroke="#003963" stroke-width="1.5" stroke-miterlimit="10"/>
<path d="M70.9517 267.569L73.7777 277.743C76.0453 285.907 103.934 285.31 136.053 276.388C168.172 267.467 192.375 253.616 190.107 245.452L187.276 235.258" stroke="#003963" stroke-width="1.5" stroke-miterlimit="10"/>
<path d="M63.3623 105.715L66.1851 115.877C66.5297 116.493 77.6879 115.67 90.7067 112.053C103.725 108.437 113.69 103.394 113.687 102.682L110.865 92.5201" stroke="#003963" stroke-width="1.5" stroke-miterlimit="10"/>
<path d="M89.2116 106.654C112.266 100.251 125.756 76.3423 119.343 53.2535C112.929 30.1647 89.0412 16.6387 65.987 23.0423C42.9328 29.446 29.4426 53.3544 35.8559 76.4432C42.2692 99.5321 66.1573 113.058 89.2116 106.654Z" stroke="#003963" stroke-width="1.5" stroke-miterlimit="10"/>
<path d="M123.732 172.466L114.958 197.474L94.5469 180.568L111.033 183.325L123.732 172.466Z" stroke="#003963" stroke-width="2" stroke-miterlimit="10"/>
<path d="M122.742 168.613L122.703 168.76L110.004 179.623L93.5173 176.862L93.4088 176.761L93.4485 176.614L101.302 148.31L122.633 168.508L122.742 168.613Z" stroke="#003963" stroke-width="2" stroke-miterlimit="10"/>
<path d="M122.935 168.559L110.005 179.622L93.5177 176.862L93.2167 176.814L106.151 165.75L122.935 168.559Z" stroke="#003963" stroke-width="2" stroke-miterlimit="10"/>
<path d="M114.83 197.009L111.03 183.33" stroke="#003963" stroke-width="2" stroke-miterlimit="10"/>
<path d="M110 179.624L106.147 165.751L101.303 148.31" stroke="#003963" stroke-width="2" stroke-miterlimit="10"/>
</g>
<defs>
<clipPath id="clip0_270_966">
<rect width="131.284" height="271.946" fill="white" transform="translate(0.723633 35.9746) rotate(-15.5235)"/>
</clipPath>
</defs>
</svg>
